<?xml version="1.0" standalone="no"?>
<svg id="Group1" width="182" height="181" viewBox="0 0 182 181" fill="none" xmlns="http://www.w3.org/2000/svg" style="max-width: 100%; max-height: 100%;">
<path d="M167.614 94.8297L181.526 91.6025L181.342 93.0852L168.771 95.8801L168.807 95.5943L180.317 101.356L180.131 102.856L167.428 96.3303L167.614 94.8297Z" fill="white" stroke-dasharray="0,0,0,59.11776351928711"><animate attributeType="XML" attributeName="stroke-dasharray" repeatCount="1" dur="1.1904761904761905s" values="0,0,0,59.11776351928711; 
          0,29.558881759643555,29.558881759643555,0; 
          59.11776351928711,0,0,0" keyTimes="0; 0.5; 1" fill="freeze"></animate></path>
<path d="M165.025 110.772L177.716 115.103L177.251 116.466L164.56 112.135L165.025 110.772Z" fill="white" stroke-dasharray="0,0,0,29.699617385864258"><animate attributeType="XML" attributeName="stroke-dasharray" repeatCount="1" dur="1.1904761904761905s" values="0,0,0,29.699617385864258; 
          0,14.849808692932129,14.849808692932129,0; 
          29.699617385864258,0,0,0" keyTimes="0; 0.5; 1" fill="freeze"></animate></path>
<path d="M161.47 121.98L172.965 128.885L170.695 132.665C170.009 133.807 169.176 134.658 168.196 135.217C167.226 135.782 166.17 136.037 165.028 135.981C163.896 135.931 162.744 135.554 161.571 134.849C160.409 134.151 159.535 133.311 158.949 132.329C158.363 131.347 158.087 130.292 158.12 129.164C158.154 128.037 158.513 126.902 159.199 125.76L161.47 121.98ZM161.886 123.909L160.356 126.455C159.825 127.34 159.55 128.217 159.531 129.088C159.522 129.965 159.757 130.785 160.236 131.549C160.709 132.323 161.414 132.991 162.35 133.553C163.286 134.115 164.202 134.421 165.097 134.468C166.002 134.522 166.835 134.336 167.595 133.911C168.364 133.491 169.012 132.845 169.537 131.97L171.067 129.424L161.886 123.909Z" fill="white" stroke-dasharray="0,0,0,76.70258331298828"><animate attributeType="XML" attributeName="stroke-dasharray" repeatCount="1" dur="1.1904761904761905s" values="0,0,0,76.70258331298828; 
          0,38.35129165649414,38.35129165649414,0; 
          76.70258331298828,0,0,0" keyTimes="0; 0.5; 1" fill="freeze"></animate></path>
<path d="M150.629 139.321L160.043 148.872L153.889 154.937L152.941 153.975L158.069 148.921L154.797 145.601L149.925 150.402L148.978 149.441L153.849 144.639L150.551 141.293L145.423 146.347L144.476 145.386L150.629 139.321Z" fill="white" stroke-dasharray="0,0,0,72.17912292480469"><animate attributeType="XML" attributeName="stroke-dasharray" repeatCount="1" dur="1.1904761904761905s" values="0,0,0,72.17912292480469; 
          0,36.089561462402344,36.089561462402344,0; 
          72.17912292480469,0,0,0" keyTimes="0; 0.5; 1" fill="freeze"></animate></path>
<path d="M131.95 155.194C132.768 154.739 133.615 154.459 134.491 154.356C135.363 154.269 136.215 154.345 137.047 154.582C137.885 154.829 138.661 155.236 139.373 155.8C140.092 156.376 140.696 157.104 141.186 157.985C141.676 158.865 141.974 159.757 142.078 160.661C142.188 161.574 142.125 162.447 141.887 163.28C141.656 164.123 141.271 164.886 140.732 165.571C140.182 166.261 139.498 166.834 138.68 167.289C137.862 167.744 137.017 168.015 136.146 168.102C135.269 168.205 134.412 168.133 133.574 167.885C132.741 167.648 131.969 167.247 131.256 166.682C130.544 166.118 129.943 165.395 129.452 164.514C128.962 163.633 128.662 162.736 128.552 161.822C128.448 160.919 128.511 160.046 128.742 159.203C128.98 158.371 129.37 157.604 129.914 156.903C130.453 156.219 131.132 155.649 131.95 155.194ZM132.606 156.373C131.924 156.753 131.376 157.223 130.96 157.784C130.534 158.35 130.242 158.973 130.084 159.651C129.926 160.33 129.9 161.024 130.006 161.734C130.103 162.449 130.337 163.143 130.711 163.814C131.078 164.474 131.541 165.034 132.098 165.493C132.645 165.958 133.249 166.302 133.909 166.525C134.568 166.748 135.251 166.828 135.958 166.765C136.654 166.707 137.342 166.489 138.024 166.109C138.705 165.73 139.259 165.257 139.685 164.69C140.101 164.13 140.388 163.51 140.546 162.831C140.704 162.153 140.735 161.456 140.639 160.74C140.533 160.031 140.295 159.345 139.928 158.685C139.554 158.014 139.094 157.446 138.547 156.981C137.99 156.522 137.381 156.181 136.721 155.958C136.061 155.735 135.378 155.655 134.672 155.718C133.966 155.781 133.277 156 132.606 156.373Z" fill="white" stroke-dasharray="0,0,0,77.29762268066406"><animate attributeType="XML" attributeName="stroke-dasharray" repeatCount="1" dur="1.1904761904761905s" values="0,0,0,77.29762268066406; 
          0,38.64881134033203,38.64881134033203,0; 
          77.29762268066406,0,0,0" keyTimes="0; 0.5; 1" fill="freeze"></animate></path>
<path d="M113.541 163.959L121.388 175.893L119.934 176.234L112.957 165.409L113.237 165.343L111.82 178.137L110.348 178.483L112.069 164.305L113.541 163.959Z" fill="white" stroke-dasharray="0,0,0,59.12099838256836"><animate attributeType="XML" attributeName="stroke-dasharray" repeatCount="1" dur="1.1904761904761905s" values="0,0,0,59.12099838256836; 
          0,29.56049919128418,29.56049919128418,0; 
          59.12099838256836,0,0,0" keyTimes="0; 0.5; 1" fill="freeze"></animate></path>
<path d="M97.6968 167.01L98.0073 180.416L96.5677 180.449L96.2572 167.043L97.6968 167.01Z" fill="white" stroke-dasharray="0,0,0,29.699153900146484"><animate attributeType="XML" attributeName="stroke-dasharray" repeatCount="1" dur="1.1904761904761905s" values="0,0,0,29.699153900146484; 
          0,14.849576950073242,14.849576950073242,0; 
          29.699153900146484,0,0,0" keyTimes="0; 0.5; 1" fill="freeze"></animate></path>
<path d="M85.672 167.514L83.1595 180.686L78.8276 179.86C77.5192 179.61 76.4334 179.122 75.5702 178.396C74.7048 177.681 74.1013 176.778 73.7597 175.686C73.4159 174.607 73.3722 173.395 73.6285 172.051C73.8825 170.719 74.3692 169.609 75.0885 168.72C75.8078 167.831 76.7024 167.208 77.7724 166.85C78.8424 166.492 80.0316 166.438 81.3401 166.687L85.672 167.514ZM84.0045 168.57L81.0871 168.013C80.0734 167.82 79.1548 167.865 78.3312 168.147C77.5054 168.442 76.8168 168.946 76.2654 169.659C75.7022 170.37 75.3183 171.262 75.1137 172.335C74.9091 173.407 74.9389 174.372 75.2031 175.229C75.465 176.097 75.9268 176.814 76.5885 177.38C77.2479 177.958 78.0786 178.343 79.0805 178.534L81.9979 179.09L84.0045 168.57Z" fill="white" stroke-dasharray="0,0,0,76.70223236083984"><animate attributeType="XML" attributeName="stroke-dasharray" repeatCount="1" dur="1.1904761904761905s" values="0,0,0,76.70223236083984; 
          0,38.35111618041992,38.35111618041992,0; 
          76.70223236083984,0,0,0" keyTimes="0; 0.5; 1" fill="freeze"></animate></path>
<path d="M65.7093 163.337L59.9388 175.442L52.1396 171.724L52.7206 170.506L59.2198 173.604L61.226 169.396L55.0517 166.452L55.6326 165.234L61.8069 168.177L63.8285 163.936L57.3292 160.838L57.9102 159.619L65.7093 163.337Z" fill="white" stroke-dasharray="0,0,0,72.1791763305664"><animate attributeType="XML" attributeName="stroke-dasharray" repeatCount="1" dur="1.1904761904761905s" values="0,0,0,72.1791763305664; 
          0,36.0895881652832,36.0895881652832,0; 
          72.1791763305664,0,0,0" keyTimes="0; 0.5; 1" fill="freeze"></animate></path>
<path d="M44.4401 151.219C45.146 151.834 45.6964 152.536 46.0912 153.325C46.4691 154.115 46.6879 154.942 46.7476 155.806C46.7994 156.678 46.6808 157.545 46.3917 158.407C46.0947 159.279 45.6153 160.094 44.9534 160.854C44.2915 161.615 43.5535 162.197 42.7395 162.602C41.9176 163.016 41.0749 163.253 40.2115 163.313C39.3402 163.382 38.491 163.279 37.664 163.004C36.8279 162.722 36.0569 162.274 35.351 161.659C34.645 161.044 34.1031 160.342 33.7252 159.551C33.3304 158.762 33.1071 157.931 33.0553 157.059C32.9955 156.195 33.1102 155.333 33.3993 154.471C33.6884 153.609 34.1639 152.797 34.8258 152.037C35.4877 151.277 36.2296 150.69 37.0515 150.276C37.8656 149.871 38.7082 149.634 39.5795 149.565C40.443 149.505 41.2967 149.612 42.1406 149.885C42.9676 150.16 43.7341 150.605 44.4401 151.219ZM43.5536 152.237C42.9653 151.725 42.3368 151.369 41.668 151.168C40.9901 150.96 40.3053 150.897 39.6135 150.979C38.9217 151.061 38.2602 151.272 37.6289 151.614C36.9885 151.947 36.4162 152.404 35.9119 152.983C35.4155 153.553 35.0462 154.178 34.804 154.858C34.5529 155.531 34.4343 156.215 34.4485 156.911C34.4626 157.608 34.6195 158.278 34.9191 158.92C35.2097 159.555 35.6491 160.129 36.2374 160.641C36.8257 161.153 37.4588 161.513 38.1366 161.721C38.8054 161.922 39.4857 161.981 40.1775 161.899C40.8693 161.817 41.5354 161.61 42.1757 161.276C42.807 160.935 43.3709 160.479 43.8673 159.909C44.3716 159.33 44.7493 158.704 45.0005 158.032C45.2427 157.351 45.3567 156.663 45.3425 155.967C45.3284 155.27 45.1715 154.601 44.8719 153.958C44.5723 153.315 44.1328 152.742 43.5536 152.237Z" fill="white" stroke-dasharray="0,0,0,77.29749298095703"><animate attributeType="XML" attributeName="stroke-dasharray" repeatCount="1" dur="1.1904761904761905s" values="0,0,0,77.29749298095703; 
          0,38.648746490478516,38.648746490478516,0; 
          77.29749298095703,0,0,0" keyTimes="0; 0.5; 1" fill="freeze"></animate></path>
<path d="M29.9472 136.994L21.4385 148.465L20.6181 147.216L28.3849 136.944L28.5431 137.184L16.0416 140.251L15.2113 138.988L29.1169 135.731L29.9472 136.994Z" fill="white" stroke-dasharray="0,0,0,59.118900299072266"><animate attributeType="XML" attributeName="stroke-dasharray" repeatCount="1" dur="1.1904761904761905s" values="0,0,0,59.118900299072266; 
          0,29.559450149536133,29.559450149536133,0; 
          59.118900299072266,0,0,0" keyTimes="0; 0.5; 1" fill="freeze"></animate></path>
<path d="M21.5848 123.132L9.10158 128.031L8.57553 126.691L21.0587 121.792L21.5848 123.132Z" fill="white" stroke-dasharray="0,0,0,29.69931411743164"><animate attributeType="XML" attributeName="stroke-dasharray" repeatCount="1" dur="1.1904761904761905s" values="0,0,0,29.69931411743164; 
          0,14.84965705871582,14.84965705871582,0; 
          29.69931411743164,0,0,0" keyTimes="0; 0.5; 1" fill="freeze"></animate></path>
<path d="M17.0542 112.343L3.81911 114.502L3.10918 110.15C2.89476 108.835 2.98074 107.648 3.36713 106.588C3.74169 105.529 4.38292 104.653 5.29085 103.958C6.18693 103.264 7.31004 102.807 8.6602 102.587C9.99852 102.369 11.2086 102.445 12.2903 102.816C13.3721 103.187 14.2646 103.813 14.9678 104.695C15.671 105.578 16.1299 106.676 16.3443 107.991L17.0542 112.343ZM15.49 111.139L15.0119 108.208C14.8458 107.19 14.4887 106.342 13.9406 105.665C13.3807 104.991 12.6711 104.517 11.8119 104.243C10.9508 103.958 9.98136 103.904 8.90361 104.08C7.82585 104.255 6.92994 104.614 6.21588 105.156C5.48998 105.7 4.9747 106.38 4.67004 107.196C4.35353 108.013 4.27738 108.925 4.44158 109.932L4.91969 112.863L15.49 111.139Z" fill="white" stroke-dasharray="0,0,0,76.7021255493164"><animate attributeType="XML" attributeName="stroke-dasharray" repeatCount="1" dur="1.1904761904761905s" values="0,0,0,76.7021255493164; 
          0,38.3510627746582,38.3510627746582,0; 
          76.7021255493164,0,0,0" keyTimes="0; 0.5; 1" fill="freeze"></animate></path>
<path d="M14.0908 91.8637L0.738143 90.6244L1.53663 82.0214L2.88085 82.1462L2.21545 89.3153L6.8575 89.7462L7.48963 82.9355L8.83385 83.0602L8.20172 89.871L12.8796 90.3051L13.545 83.136L14.8892 83.2607L14.0908 91.8637Z" fill="white" stroke-dasharray="0,0,0,72.17980194091797"><animate attributeType="XML" attributeName="stroke-dasharray" repeatCount="1" dur="1.1904761904761905s" values="0,0,0,72.17980194091797; 
          0,36.089900970458984,36.089900970458984,0; 
          72.17980194091797,0,0,0" keyTimes="0; 0.5; 1" fill="freeze"></animate></path>
<path d="M18.0257 67.9707C17.6936 68.8458 17.2257 69.6052 16.6221 70.2489C16.0114 70.8771 15.3114 71.3687 14.5221 71.7238C13.7216 72.0745 12.8669 72.2636 11.9581 72.2909C11.038 72.3139 10.1068 72.1466 9.16437 71.789C8.22196 71.4313 7.41982 70.9408 6.75795 70.3174C6.08486 69.6897 5.5708 68.9812 5.21576 68.1919C4.84951 67.3983 4.65195 66.5661 4.62309 65.6952C4.59848 64.813 4.75223 63.9344 5.08434 63.0593C5.41645 62.1842 5.88782 61.4326 6.49845 60.8044C7.10212 60.1607 7.80422 59.6634 8.60477 59.3127C9.3941 58.9576 10.2432 58.7665 11.152 58.7392C12.0608 58.7118 12.9864 58.877 13.9289 59.2347C14.8713 59.5923 15.679 60.085 16.3521 60.7126C17.014 61.336 17.528 62.0445 17.8943 62.8381C18.2493 63.6275 18.4448 64.4653 18.4806 65.3517C18.5095 66.2226 18.3578 67.0956 18.0257 67.9707ZM16.7636 67.4917C17.0403 66.7625 17.1569 66.0494 17.1133 65.3526C17.074 64.6446 16.8961 63.9803 16.5797 63.3596C16.2634 62.739 15.8357 62.1917 15.2969 61.7176C14.7623 61.2324 14.1359 60.8535 13.4179 60.581C12.7111 60.3127 11.9967 60.1828 11.2748 60.1912C10.5571 60.1884 9.874 60.3142 9.22552 60.5686C8.57704 60.8231 8.00321 61.2022 7.50402 61.7058C7.0091 62.1982 6.62326 62.8091 6.3465 63.5383C6.06974 64.2676 5.95104 64.9862 5.99038 65.6942C6.03397 66.3911 6.21396 67.0498 6.53033 67.6704C6.8467 68.291 7.27219 68.844 7.8068 69.3293C8.34566 69.8033 8.9685 70.1744 9.67531 70.4427C10.3933 70.7152 11.1112 70.8528 11.8289 70.8557C12.5508 70.8473 13.2361 70.7159 13.8845 70.4614C14.533 70.2069 15.1069 69.8279 15.606 69.3242C16.1052 68.8206 16.4911 68.2097 16.7636 67.4917Z" fill="white" stroke-dasharray="0,0,0,77.29780578613281"><animate attributeType="XML" attributeName="stroke-dasharray" repeatCount="1" dur="1.1904761904761905s" values="0,0,0,77.29780578613281; 
          0,38.648902893066406,38.648902893066406,0; 
          77.29780578613281,0,0,0" keyTimes="0; 0.5; 1" fill="freeze"></animate></path>
<path d="M26.5593 49.107L12.8828 44.9923L13.7792 43.7971L26.0769 47.6202L25.9041 47.8506L18.7796 37.1299L19.6868 35.9203L27.4665 47.8974L26.5593 49.107Z" fill="white" stroke-dasharray="0,0,0,59.12042999267578"><animate attributeType="XML" attributeName="stroke-dasharray" repeatCount="1" dur="1.1904761904761905s" values="0,0,0,59.12042999267578; 
          0,29.56021499633789,29.56021499633789,0; 
          59.12042999267578,0,0,0" keyTimes="0; 0.5; 1" fill="freeze"></animate></path>
<path d="M36.7212 36.5507L27.8425 26.501L28.9217 25.5476L37.8004 35.5973L36.7212 36.5507Z" fill="white" stroke-dasharray="0,0,0,29.70000648498535"><animate attributeType="XML" attributeName="stroke-dasharray" repeatCount="1" dur="1.1904761904761905s" values="0,0,0,29.70000648498535; 
          0,14.850003242492676,14.850003242492676,0; 
          29.70000648498535,0,0,0" keyTimes="0; 0.5; 1" fill="freeze"></animate></path>
<path d="M45.0918 28.7294L38.485 17.0599L42.3226 14.8872C43.4818 14.2309 44.6255 13.9006 45.7537 13.8961C46.876 13.8813 47.9205 14.1794 48.887 14.7905C49.8476 15.3912 50.6649 16.2868 51.3389 17.4772C52.007 18.6572 52.3544 19.8188 52.3811 20.9621C52.4078 22.1053 52.129 23.1595 51.5446 24.1246C50.9603 25.0898 50.0886 25.9005 48.9294 26.5567L45.0918 28.7294ZM45.6798 26.8452L48.2643 25.3819C49.1624 24.8735 49.8339 24.2451 50.279 23.4967C50.7181 22.7378 50.9172 21.9081 50.8761 21.0074C50.8455 20.1008 50.5612 19.1724 50.0231 18.2221C49.4851 17.2719 48.8383 16.5556 48.0826 16.0733C47.321 15.5806 46.5048 15.3325 45.6341 15.329C44.7575 15.3151 43.8754 15.5594 42.9878 16.062L40.4032 17.5252L45.6798 26.8452Z" fill="white" stroke-dasharray="0,0,0,76.7030258178711"><animate attributeType="XML" attributeName="stroke-dasharray" repeatCount="1" dur="1.1904761904761905s" values="0,0,0,76.7030258178711; 
          0,38.35151290893555,38.35151290893555,0; 
          76.7030258178711,0,0,0" keyTimes="0; 0.5; 1" fill="freeze"></animate></path>
<path d="M62.9567 18.9387L59.4983 5.98228L67.846 3.75406L68.1942 5.05839L61.2377 6.91524L62.44 11.4195L69.0487 9.65553L69.3968 10.9599L62.7882 12.7239L63.9998 17.263L70.9562 15.4061L71.3044 16.7104L62.9567 18.9387Z" fill="white" stroke-dasharray="0,0,0,72.1800537109375"><animate attributeType="XML" attributeName="stroke-dasharray" repeatCount="1" dur="1.1904761904761905s" values="0,0,0,72.1800537109375; 
          0,36.09002685546875,36.09002685546875,0; 
          72.1800537109375,0,0,0" keyTimes="0; 0.5; 1" fill="freeze"></animate></path>
<path d="M87.026 14.3066C86.0901 14.2958 85.2161 14.1176 84.404 13.7722C83.6041 13.4149 82.9017 12.9268 82.2968 12.3077C81.6921 11.6767 81.2206 10.9392 80.8824 10.0952C80.5443 9.23922 80.381 8.30727 80.3927 7.29934C80.4044 6.2914 80.5891 5.36948 80.9468 4.53357C81.3046 3.68565 81.7931 2.95926 82.4121 2.35439C83.0313 1.73752 83.7448 1.26575 84.5526 0.939081C85.3725 0.612553 86.2504 0.454708 87.1863 0.465547C88.1222 0.476386 88.9902 0.660449 89.7901 1.01774C90.6021 1.36316 91.3105 1.8514 91.9153 2.48244C92.5201 3.10149 92.9917 3.833 93.33 4.67697C93.6682 5.52095 93.8315 6.4469 93.8198 7.45483C93.8081 8.46277 93.6234 9.39069 93.2655 10.2386C92.9078 11.0745 92.4194 11.8009 91.8002 12.4178C91.1812 13.0227 90.4617 13.4943 89.6417 13.8329C88.8338 14.1595 87.962 14.3175 87.026 14.3066ZM87.0416 12.9567C87.8216 12.9657 88.5312 12.83 89.1705 12.5493C89.8218 12.2689 90.3844 11.8733 90.8584 11.3628C91.3323 10.8523 91.6992 10.2625 91.9589 9.59343C92.2307 8.92453 92.371 8.20611 92.3799 7.43816C92.3887 6.68221 92.2649 5.96673 92.0087 5.29172C91.7645 4.61684 91.4114 4.01871 90.9495 3.49733C90.4875 2.97594 89.9342 2.56751 89.2895 2.27202C88.6569 1.97668 87.9506 1.82449 87.1707 1.81546C86.3907 1.80642 85.6751 1.94215 85.0238 2.22262C84.3845 2.50324 83.8279 2.89882 83.354 3.40937C82.88 3.91991 82.5072 4.50963 82.2354 5.17853C81.9756 5.84757 81.8414 6.56006 81.8326 7.31601C81.8237 8.08396 81.9414 8.80537 82.1856 9.48024C82.4418 10.1553 82.8009 10.7535 83.2629 11.2748C83.7249 11.7962 84.2782 12.2047 84.9228 12.5001C85.5674 12.7956 86.2737 12.9478 87.0416 12.9567Z" fill="white" stroke-dasharray="0,0,0,77.29776000976562"><animate attributeType="XML" attributeName="stroke-dasharray" repeatCount="1" dur="1.1904761904761905s" values="0,0,0,77.29776000976562; 
          0,38.64888000488281,38.64888000488281,0; 
          77.29776000976562,0,0,0" keyTimes="0; 0.5; 1" fill="freeze"></animate></path>
<path d="M107.785 15.7773L106.927 1.52104L108.358 1.9499L109.014 14.8114L108.738 14.7287L116.341 4.34223L117.79 4.77626L109.233 16.2113L107.785 15.7773Z" fill="white" stroke-dasharray="0,0,0,59.120609283447266"><animate attributeType="XML" attributeName="stroke-dasharray" repeatCount="1" dur="1.1904761904761905s" values="0,0,0,59.120609283447266; 
          0,29.560304641723633,29.560304641723633,0; 
          59.120609283447266,0,0,0" keyTimes="0; 0.5; 1" fill="freeze"></animate></path>
<path d="M123.008 20.938L129.398 9.1485L130.664 9.83471L124.274 21.6242L123.008 20.938Z" fill="white" stroke-dasharray="0,0,0,29.699739456176758"><animate attributeType="XML" attributeName="stroke-dasharray" repeatCount="1" dur="1.1904761904761905s" values="0,0,0,29.699739456176758; 
          0,14.849869728088379,14.849869728088379,0; 
          29.699739456176758,0,0,0" keyTimes="0; 0.5; 1" fill="freeze"></animate></path>
<path d="M133.279 26.1309L141.973 15.9215L145.331 18.7807C146.345 19.6444 147.047 20.6053 147.439 21.6635C147.838 22.7126 147.916 23.796 147.674 24.9135C147.439 26.0219 146.878 27.0968 145.991 28.1384C145.112 29.1707 144.14 29.8956 143.075 30.3129C142.011 30.7302 140.925 30.83 139.818 30.6122C138.711 30.3945 137.65 29.8538 136.636 28.9902L133.279 26.1309ZM135.25 26.0368L137.511 27.9624C138.297 28.6315 139.118 29.0467 139.973 29.208C140.837 29.3601 141.685 29.2624 142.516 28.9148C143.357 28.575 144.132 27.9894 144.84 27.158C145.548 26.3267 145.999 25.4733 146.193 24.598C146.394 23.7136 146.347 22.8619 146.052 22.0428C145.764 21.2146 145.232 20.4699 144.455 19.8085L142.194 17.8829L135.25 26.0368Z" fill="white" stroke-dasharray="0,0,0,76.70303344726562"><animate attributeType="XML" attributeName="stroke-dasharray" repeatCount="1" dur="1.1904761904761905s" values="0,0,0,76.70303344726562; 
          0,38.35151672363281,38.35151672363281,0; 
          76.70303344726562,0,0,0" keyTimes="0; 0.5; 1" fill="freeze"></animate></path>
<path d="M148.929 39.9294L159.916 32.2405L164.87 39.3192L163.764 40.0932L159.635 34.1943L155.816 36.8674L159.738 42.4713L158.632 43.2454L154.71 37.6414L150.861 40.3352L154.989 46.2341L153.883 47.0081L148.929 39.9294Z" fill="white" stroke-dasharray="0,0,0,72.18001556396484"><animate attributeType="XML" attributeName="stroke-dasharray" repeatCount="1" dur="1.1904761904761905s" values="0,0,0,72.18001556396484; 
          0,36.09000778198242,36.09000778198242,0; 
          72.18001556396484,0,0,0" keyTimes="0; 0.5; 1" fill="freeze"></animate></path>
<path d="M161.422 60.8035C161.11 59.9211 160.976 59.0392 161.021 58.1579C161.08 57.2838 161.297 56.4563 161.669 55.6751C162.053 54.89 162.583 54.1933 163.259 53.5849C163.946 52.9726 164.765 52.4983 165.715 52.1619C166.665 51.8256 167.594 51.6813 168.502 51.7291C169.422 51.7729 170.272 51.9812 171.053 52.3539C171.845 52.7226 172.534 53.2299 173.119 53.8757C173.708 54.5328 174.159 55.3026 174.471 56.1849C174.783 57.0673 174.91 57.9455 174.85 58.8195C174.805 59.7009 174.591 60.5341 174.207 61.3193C173.834 62.1004 173.31 62.7951 172.634 63.4034C171.959 64.0118 171.146 64.4841 170.195 64.8204C169.245 65.1568 168.31 65.303 167.391 65.2593C166.483 65.2115 165.633 65.0032 164.84 64.6345C164.059 64.2618 163.369 63.7488 162.768 63.0957C162.183 62.4499 161.735 61.6858 161.422 60.8035ZM162.695 60.353C162.955 61.0883 163.327 61.7077 163.811 62.2112C164.299 62.7259 164.864 63.1178 165.506 63.3868C166.149 63.6558 166.829 63.797 167.547 63.8104C168.268 63.835 168.991 63.7192 169.715 63.463C170.428 63.2107 171.057 62.848 171.602 62.375C172.151 61.9132 172.591 61.3756 172.922 60.7623C173.252 60.1489 173.445 59.4888 173.5 58.7818C173.559 58.0862 173.459 57.3707 173.198 56.6354C172.938 55.9001 172.564 55.275 172.077 54.7603C171.593 54.2568 171.03 53.8706 170.387 53.6016C169.744 53.3325 169.062 53.1857 168.341 53.1611C167.623 53.1477 166.908 53.2672 166.195 53.5194C165.471 53.7757 164.835 54.1347 164.285 54.5965C163.74 55.0696 163.302 55.6128 162.972 56.2261C162.642 56.8395 162.449 57.4996 162.394 58.2066C162.338 58.9135 162.439 59.629 162.695 60.353Z" fill="white" stroke-dasharray="0,0,0,77.2979736328125"><animate attributeType="XML" attributeName="stroke-dasharray" repeatCount="1" dur="1.1904761904761905s" values="0,0,0,77.2979736328125; 
          0,38.64898681640625,38.64898681640625,0; 
          77.2979736328125,0,0,0" keyTimes="0; 0.5; 1" fill="freeze"></animate></path>
<path d="M167.058 80.4601L180.139 74.7282L180.231 76.2194L168.389 81.2796L168.371 80.9921L180.745 84.5375L180.839 86.0466L167.151 81.9693L167.058 80.4601Z" fill="white" stroke-dasharray="0,0,0,59.11997985839844"><animate attributeType="XML" attributeName="stroke-dasharray" repeatCount="1" dur="1.1904761904761905s" values="0,0,0,59.11997985839844; 
          0,29.55998992919922,29.55998992919922,0; 
          59.11997985839844,0,0,0" keyTimes="0; 0.5; 1" fill="freeze"></animate></path>
<g filter="url(#filter0_b_5_1583)">
<path fill-rule="evenodd" clip-rule="evenodd" d="M91 115C104.255 115 115 104.255 115 91C115 77.7452 104.255 67 91 67C77.7452 67 67 77.7452 67 91C67 104.255 77.7452 115 91 115ZM87.25 99.8033L100.75 92.2576C101.75 91.6987 101.75 90.3013 100.75 89.7424L87.25 82.1967C86.25 81.6378 85 82.3365 85 83.4543V98.5457C85 99.6635 86.25 100.362 87.25 99.8033Z" fill="white" fill-opacity="0.3" stroke-dasharray="0,0,0,206.1230926513672"><animate attributeType="XML" attributeName="stroke-dasharray" repeatCount="1" dur="1.1904761904761905s" values="0,0,0,206.1230926513672; 
          0,103.0615463256836,103.0615463256836,0; 
          206.1230926513672,0,0,0" keyTimes="0; 0.5; 1" fill="freeze"></animate></path>
</g>
<defs>
<filter id="filter0_b_5_1583" x="51" y="51" width="80" height="80" filterUnits="userSpaceOnUse" color-interpolation-filters="sRGB">
<feFlood flood-opacity="0" result="BackgroundImageFix"></feFlood>
<feGaussianBlur in="BackgroundImageFix" stdDeviation="8"></feGaussianBlur>
<feComposite in2="SourceAlpha" operator="in" result="effect1_backgroundBlur_5_1583"></feComposite>
<feBlend mode="normal" in="SourceGraphic" in2="effect1_backgroundBlur_5_1583" result="shape"></feBlend>
</filter>
</defs>
<setting>{"type":"direct","speed":42,"random":1,"shift":1,"size":1,"rupture":50}</setting></svg>